<?xml version="1.0" encoding="utf-8" standalone="no"?>
<!DOCTYPE svg PUBLIC "-//W3C//DTD SVG 1.1//EN"
  "http://www.w3.org/Graphics/SVG/1.1/DTD/svg11.dtd">
<svg xmlns:xlink="http://www.w3.org/1999/xlink" width="460.8pt" height="345.6pt" viewBox="0 0 460.8 345.6" xmlns="http://www.w3.org/2000/svg" version="1.1">
 <metadata>
  <rdf:RDF xmlns:dc="http://purl.org/dc/elements/1.1/" xmlns:cc="http://creativecommons.org/ns#" xmlns:rdf="http://www.w3.org/1999/02/22-rdf-syntax-ns#">
   <cc:Work>
    <dc:type rdf:resource="http://purl.org/dc/dcmitype/StillImage"/>
    <dc:date>2025-04-16T23:30:18.482828</dc:date>
    <dc:format>image/svg+xml</dc:format>
    <dc:creator>
     <cc:Agent>
      <dc:title>Matplotlib v3.10.0, https://matplotlib.org/</dc:title>
     </cc:Agent>
    </dc:creator>
   </cc:Work>
  </rdf:RDF>
 </metadata>
 <defs>
  <style type="text/css">*{stroke-linejoin: round; stroke-linecap: butt}</style>
 </defs>
 <g id="figure_1">
  <g id="patch_1">
   <path d="M 0 345.6 
L 460.8 345.6 
L 460.8 0 
L 0 0 
z
" style="fill: #ffffff"/>
  </g>
  <g id="axes_1">
   <g id="patch_2">
    <path d="M 57.6 307.584 
L 414.72 307.584 
L 414.72 41.472 
L 57.6 41.472 
z
" style="fill: #ffffff"/>
   </g>
   <g id="patch_3">
    <path d="M 73.832727 307.584 
L 83.899535 307.584 
L 83.899535 102.322944 
L 73.832727 102.322944 
z
" clip-path="url(#pc573ef01b1)" style="fill: #1f77b4"/>
   </g>
   <g id="patch_4">
    <path d="M 86.416237 307.584 
L 96.483044 307.584 
L 96.483044 122.843136 
L 86.416237 122.843136 
z
" clip-path="url(#pc573ef01b1)" style="fill: #1f77b4"/>
   </g>
   <g id="patch_5">
    <path d="M 98.999746 307.584 
L 109.066554 307.584 
L 109.066554 158.058624 
L 98.999746 158.058624 
z
" clip-path="url(#pc573ef01b1)" style="fill: #1f77b4"/>
   </g>
   <g id="patch_6">
    <path d="M 111.583256 307.584 
L 121.650063 307.584 
L 121.650063 171.157248 
L 111.583256 171.157248 
z
" clip-path="url(#pc573ef01b1)" style="fill: #1f77b4"/>
   </g>
   <g id="patch_7">
    <path d="M 124.166765 307.584 
L 134.233573 307.584 
L 134.233573 203.50464 
L 124.166765 203.50464 
z
" clip-path="url(#pc573ef01b1)" style="fill: #1f77b4"/>
   </g>
   <g id="patch_8">
    <path d="M 136.750275 307.584 
L 146.817082 307.584 
L 146.817082 199.483392 
L 136.750275 199.483392 
z
" clip-path="url(#pc573ef01b1)" style="fill: #1f77b4"/>
   </g>
   <g id="patch_9">
    <path d="M 149.333784 307.584 
L 159.400592 307.584 
L 159.400592 231.860352 
L 149.333784 231.860352 
z
" clip-path="url(#pc573ef01b1)" style="fill: #1f77b4"/>
   </g>
   <g id="patch_10">
    <path d="M 161.917294 307.584 
L 171.984101 307.584 
L 171.984101 246.9696 
L 161.917294 246.9696 
z
" clip-path="url(#pc573ef01b1)" style="fill: #1f77b4"/>
   </g>
   <g id="patch_11">
    <path d="M 174.500803 307.584 
L 184.567611 307.584 
L 184.567611 251.493504 
L 174.500803 251.493504 
z
" clip-path="url(#pc573ef01b1)" style="fill: #1f77b4"/>
   </g>
   <g id="patch_12">
    <path d="M 187.084313 307.584 
L 197.151121 307.584 
L 197.151121 242.5344 
L 187.084313 242.5344 
z
" clip-path="url(#pc573ef01b1)" style="fill: #1f77b4"/>
   </g>
   <g id="patch_13">
    <path d="M 199.667822 307.584 
L 209.73463 307.584 
L 209.73463 251.25696 
L 199.667822 251.25696 
z
" clip-path="url(#pc573ef01b1)" style="fill: #1f77b4"/>
   </g>
   <g id="patch_14">
    <path d="M 212.251332 307.584 
L 222.31814 307.584 
L 222.31814 270.239616 
L 212.251332 270.239616 
z
" clip-path="url(#pc573ef01b1)" style="fill: #1f77b4"/>
   </g>
   <g id="patch_15">
    <path d="M 224.834841 307.584 
L 234.901649 307.584 
L 234.901649 290.848512 
L 224.834841 290.848512 
z
" clip-path="url(#pc573ef01b1)" style="fill: #1f77b4"/>
   </g>
   <g id="patch_16">
    <path d="M 237.418351 307.584 
L 247.485159 307.584 
L 247.485159 292.50432 
L 237.418351 292.50432 
z
" clip-path="url(#pc573ef01b1)" style="fill: #1f77b4"/>
   </g>
   <g id="patch_17">
    <path d="M 250.00186 307.584 
L 260.068668 307.584 
L 260.068668 296.141184 
L 250.00186 296.141184 
z
" clip-path="url(#pc573ef01b1)" style="fill: #1f77b4"/>
   </g>
   <g id="patch_18">
    <path d="M 262.58537 307.584 
L 272.652178 307.584 
L 272.652178 296.732544 
L 262.58537 296.732544 
z
" clip-path="url(#pc573ef01b1)" style="fill: #1f77b4"/>
   </g>
   <g id="patch_19">
    <path d="M 275.168879 307.584 
L 285.235687 307.584 
L 285.235687 304.568064 
L 275.168879 304.568064 
z
" clip-path="url(#pc573ef01b1)" style="fill: #1f77b4"/>
   </g>
   <g id="patch_20">
    <path d="M 287.752389 307.584 
L 297.819197 307.584 
L 297.819197 304.656768 
L 287.752389 304.656768 
z
" clip-path="url(#pc573ef01b1)" style="fill: #1f77b4"/>
   </g>
   <g id="patch_21">
    <path d="M 300.335899 307.584 
L 310.402706 307.584 
L 310.402706 305.573376 
L 300.335899 305.573376 
z
" clip-path="url(#pc573ef01b1)" style="fill: #1f77b4"/>
   </g>
   <g id="patch_22">
    <path d="M 312.919408 307.584 
L 322.986216 307.584 
L 322.986216 305.573376 
L 312.919408 305.573376 
z
" clip-path="url(#pc573ef01b1)" style="fill: #1f77b4"/>
   </g>
   <g id="patch_23">
    <path d="M 325.502918 307.584 
L 335.569725 307.584 
L 335.569725 303.29664 
L 325.502918 303.29664 
z
" clip-path="url(#pc573ef01b1)" style="fill: #1f77b4"/>
   </g>
   <g id="patch_24">
    <path d="M 338.086427 307.584 
L 348.153235 307.584 
L 348.153235 307.584 
L 338.086427 307.584 
z
" clip-path="url(#pc573ef01b1)" style="fill: #1f77b4"/>
   </g>
   <g id="patch_25">
    <path d="M 350.669937 307.584 
L 360.736744 307.584 
L 360.736744 307.584 
L 350.669937 307.584 
z
" clip-path="url(#pc573ef01b1)" style="fill: #1f77b4"/>
   </g>
   <g id="patch_26">
    <path d="M 363.253446 307.584 
L 373.320254 307.584 
L 373.320254 307.584 
L 363.253446 307.584 
z
" clip-path="url(#pc573ef01b1)" style="fill: #1f77b4"/>
   </g>
   <g id="patch_27">
    <path d="M 375.836956 307.584 
L 385.903763 307.584 
L 385.903763 307.584 
L 375.836956 307.584 
z
" clip-path="url(#pc573ef01b1)" style="fill: #1f77b4"/>
   </g>
   <g id="patch_28">
    <path d="M 388.420465 307.584 
L 398.487273 307.584 
L 398.487273 307.584 
L 388.420465 307.584 
z
" clip-path="url(#pc573ef01b1)" style="fill: #1f77b4"/>
   </g>
   <g id="patch_29">
    <path d="M 73.832727 307.584 
L 83.899535 307.584 
L 83.899535 307.584 
L 73.832727 307.584 
z
" clip-path="url(#pc573ef01b1)" style="fill: #ff7f0e"/>
   </g>
   <g id="patch_30">
    <path d="M 86.416237 307.584 
L 96.483044 307.584 
L 96.483044 291.853824 
L 86.416237 291.853824 
z
" clip-path="url(#pc573ef01b1)" style="fill: #ff7f0e"/>
   </g>
   <g id="patch_31">
    <path d="M 98.999746 307.584 
L 109.066554 307.584 
L 109.066554 277.661184 
L 98.999746 277.661184 
z
" clip-path="url(#pc573ef01b1)" style="fill: #ff7f0e"/>
   </g>
   <g id="patch_32">
    <path d="M 111.583256 307.584 
L 121.650063 307.584 
L 121.650063 265.272192 
L 111.583256 265.272192 
z
" clip-path="url(#pc573ef01b1)" style="fill: #ff7f0e"/>
   </g>
   <g id="patch_33">
    <path d="M 124.166765 307.584 
L 134.233573 307.584 
L 134.233573 262.877184 
L 124.166765 262.877184 
z
" clip-path="url(#pc573ef01b1)" style="fill: #ff7f0e"/>
   </g>
   <g id="patch_34">
    <path d="M 136.750275 307.584 
L 146.817082 307.584 
L 146.817082 278.843904 
L 136.750275 278.843904 
z
" clip-path="url(#pc573ef01b1)" style="fill: #ff7f0e"/>
   </g>
   <g id="patch_35">
    <path d="M 149.333784 307.584 
L 159.400592 307.584 
L 159.400592 262.551936 
L 149.333784 262.551936 
z
" clip-path="url(#pc573ef01b1)" style="fill: #ff7f0e"/>
   </g>
   <g id="patch_36">
    <path d="M 161.917294 307.584 
L 171.984101 307.584 
L 171.984101 284.96448 
L 161.917294 284.96448 
z
" clip-path="url(#pc573ef01b1)" style="fill: #ff7f0e"/>
   </g>
   <g id="patch_37">
    <path d="M 174.500803 307.584 
L 184.567611 307.584 
L 184.567611 284.6688 
L 174.500803 284.6688 
z
" clip-path="url(#pc573ef01b1)" style="fill: #ff7f0e"/>
   </g>
   <g id="patch_38">
    <path d="M 187.084313 307.584 
L 197.151121 307.584 
L 197.151121 283.840896 
L 187.084313 283.840896 
z
" clip-path="url(#pc573ef01b1)" style="fill: #ff7f0e"/>
   </g>
   <g id="patch_39">
    <path d="M 199.667822 307.584 
L 209.73463 307.584 
L 209.73463 272.309376 
L 199.667822 272.309376 
z
" clip-path="url(#pc573ef01b1)" style="fill: #ff7f0e"/>
   </g>
   <g id="patch_40">
    <path d="M 212.251332 307.584 
L 222.31814 307.584 
L 222.31814 274.32 
L 212.251332 274.32 
z
" clip-path="url(#pc573ef01b1)" style="fill: #ff7f0e"/>
   </g>
   <g id="patch_41">
    <path d="M 224.834841 307.584 
L 234.901649 307.584 
L 234.901649 283.219968 
L 224.834841 283.219968 
z
" clip-path="url(#pc573ef01b1)" style="fill: #ff7f0e"/>
   </g>
   <g id="patch_42">
    <path d="M 237.418351 307.584 
L 247.485159 307.584 
L 247.485159 293.273088 
L 237.418351 293.273088 
z
" clip-path="url(#pc573ef01b1)" style="fill: #ff7f0e"/>
   </g>
   <g id="patch_43">
    <path d="M 250.00186 307.584 
L 260.068668 307.584 
L 260.068668 294.485376 
L 250.00186 294.485376 
z
" clip-path="url(#pc573ef01b1)" style="fill: #ff7f0e"/>
   </g>
   <g id="patch_44">
    <path d="M 262.58537 307.584 
L 272.652178 307.584 
L 272.652178 297.471744 
L 262.58537 297.471744 
z
" clip-path="url(#pc573ef01b1)" style="fill: #ff7f0e"/>
   </g>
   <g id="patch_45">
    <path d="M 275.168879 307.584 
L 285.235687 307.584 
L 285.235687 299.15712 
L 275.168879 299.15712 
z
" clip-path="url(#pc573ef01b1)" style="fill: #ff7f0e"/>
   </g>
   <g id="patch_46">
    <path d="M 287.752389 307.584 
L 297.819197 307.584 
L 297.819197 304.715904 
L 287.752389 304.715904 
z
" clip-path="url(#pc573ef01b1)" style="fill: #ff7f0e"/>
   </g>
   <g id="patch_47">
    <path d="M 300.335899 307.584 
L 310.402706 307.584 
L 310.402706 304.77504 
L 300.335899 304.77504 
z
" clip-path="url(#pc573ef01b1)" style="fill: #ff7f0e"/>
   </g>
   <g id="patch_48">
    <path d="M 312.919408 307.584 
L 322.986216 307.584 
L 322.986216 305.573376 
L 312.919408 305.573376 
z
" clip-path="url(#pc573ef01b1)" style="fill: #ff7f0e"/>
   </g>
   <g id="patch_49">
    <path d="M 325.502918 307.584 
L 335.569725 307.584 
L 335.569725 305.573376 
L 325.502918 305.573376 
z
" clip-path="url(#pc573ef01b1)" style="fill: #ff7f0e"/>
   </g>
   <g id="patch_50">
    <path d="M 338.086427 307.584 
L 348.153235 307.584 
L 348.153235 303.29664 
L 338.086427 303.29664 
z
" clip-path="url(#pc573ef01b1)" style="fill: #ff7f0e"/>
   </g>
   <g id="patch_51">
    <path d="M 350.669937 307.584 
L 360.736744 307.584 
L 360.736744 307.584 
L 350.669937 307.584 
z
" clip-path="url(#pc573ef01b1)" style="fill: #ff7f0e"/>
   </g>
   <g id="patch_52">
    <path d="M 363.253446 307.584 
L 373.320254 307.584 
L 373.320254 307.584 
L 363.253446 307.584 
z
" clip-path="url(#pc573ef01b1)" style="fill: #ff7f0e"/>
   </g>
   <g id="patch_53">
    <path d="M 375.836956 307.584 
L 385.903763 307.584 
L 385.903763 307.584 
L 375.836956 307.584 
z
" clip-path="url(#pc573ef01b1)" style="fill: #ff7f0e"/>
   </g>
   <g id="patch_54">
    <path d="M 388.420465 307.584 
L 398.487273 307.584 
L 398.487273 307.584 
L 388.420465 307.584 
z
" clip-path="url(#pc573ef01b1)" style="fill: #ff7f0e"/>
   </g>
   <g id="patch_55">
    <path d="M 73.832727 307.584 
L 83.899535 307.584 
L 83.899535 307.584 
L 73.832727 307.584 
z
" clip-path="url(#pc573ef01b1)" style="fill: #2ca02c"/>
   </g>
   <g id="patch_56">
    <path d="M 86.416237 307.584 
L 96.483044 307.584 
L 96.483044 307.43616 
L 86.416237 307.43616 
z
" clip-path="url(#pc573ef01b1)" style="fill: #2ca02c"/>
   </g>
   <g id="patch_57">
    <path d="M 98.999746 307.584 
L 109.066554 307.584 
L 109.066554 307.524864 
L 98.999746 307.524864 
z
" clip-path="url(#pc573ef01b1)" style="fill: #2ca02c"/>
   </g>
   <g id="patch_58">
    <path d="M 111.583256 307.584 
L 121.650063 307.584 
L 121.650063 307.524864 
L 111.583256 307.524864 
z
" clip-path="url(#pc573ef01b1)" style="fill: #2ca02c"/>
   </g>
   <g id="patch_59">
    <path d="M 124.166765 307.584 
L 134.233573 307.584 
L 134.233573 307.524864 
L 124.166765 307.524864 
z
" clip-path="url(#pc573ef01b1)" style="fill: #2ca02c"/>
   </g>
   <g id="patch_60">
    <path d="M 136.750275 307.584 
L 146.817082 307.584 
L 146.817082 307.554432 
L 136.750275 307.554432 
z
" clip-path="url(#pc573ef01b1)" style="fill: #2ca02c"/>
   </g>
   <g id="patch_61">
    <path d="M 149.333784 307.584 
L 159.400592 307.584 
L 159.400592 307.110912 
L 149.333784 307.110912 
z
" clip-path="url(#pc573ef01b1)" style="fill: #2ca02c"/>
   </g>
   <g id="patch_62">
    <path d="M 161.917294 307.584 
L 171.984101 307.584 
L 171.984101 307.524864 
L 161.917294 307.524864 
z
" clip-path="url(#pc573ef01b1)" style="fill: #2ca02c"/>
   </g>
   <g id="patch_63">
    <path d="M 174.500803 307.584 
L 184.567611 307.584 
L 184.567611 307.554432 
L 174.500803 307.554432 
z
" clip-path="url(#pc573ef01b1)" style="fill: #2ca02c"/>
   </g>
   <g id="patch_64">
    <path d="M 187.084313 307.584 
L 197.151121 307.584 
L 197.151121 307.584 
L 187.084313 307.584 
z
" clip-path="url(#pc573ef01b1)" style="fill: #2ca02c"/>
   </g>
   <g id="patch_65">
    <path d="M 199.667822 307.584 
L 209.73463 307.584 
L 209.73463 307.584 
L 199.667822 307.584 
z
" clip-path="url(#pc573ef01b1)" style="fill: #2ca02c"/>
   </g>
   <g id="patch_66">
    <path d="M 212.251332 307.584 
L 222.31814 307.584 
L 222.31814 307.465728 
L 212.251332 307.465728 
z
" clip-path="url(#pc573ef01b1)" style="fill: #2ca02c"/>
   </g>
   <g id="patch_67">
    <path d="M 224.834841 307.584 
L 234.901649 307.584 
L 234.901649 307.584 
L 224.834841 307.584 
z
" clip-path="url(#pc573ef01b1)" style="fill: #2ca02c"/>
   </g>
   <g id="patch_68">
    <path d="M 237.418351 307.584 
L 247.485159 307.584 
L 247.485159 307.554432 
L 237.418351 307.554432 
z
" clip-path="url(#pc573ef01b1)" style="fill: #2ca02c"/>
   </g>
   <g id="patch_69">
    <path d="M 250.00186 307.584 
L 260.068668 307.584 
L 260.068668 307.584 
L 250.00186 307.584 
z
" clip-path="url(#pc573ef01b1)" style="fill: #2ca02c"/>
   </g>
   <g id="patch_70">
    <path d="M 262.58537 307.584 
L 272.652178 307.584 
L 272.652178 307.584 
L 262.58537 307.584 
z
" clip-path="url(#pc573ef01b1)" style="fill: #2ca02c"/>
   </g>
   <g id="patch_71">
    <path d="M 275.168879 307.584 
L 285.235687 307.584 
L 285.235687 307.584 
L 275.168879 307.584 
z
" clip-path="url(#pc573ef01b1)" style="fill: #2ca02c"/>
   </g>
   <g id="patch_72">
    <path d="M 287.752389 307.584 
L 297.819197 307.584 
L 297.819197 307.584 
L 287.752389 307.584 
z
" clip-path="url(#pc573ef01b1)" style="fill: #2ca02c"/>
   </g>
   <g id="patch_73">
    <path d="M 300.335899 307.584 
L 310.402706 307.584 
L 310.402706 307.584 
L 300.335899 307.584 
z
" clip-path="url(#pc573ef01b1)" style="fill: #2ca02c"/>
   </g>
   <g id="patch_74">
    <path d="M 312.919408 307.584 
L 322.986216 307.584 
L 322.986216 307.584 
L 312.919408 307.584 
z
" clip-path="url(#pc573ef01b1)" style="fill: #2ca02c"/>
   </g>
   <g id="patch_75">
    <path d="M 325.502918 307.584 
L 335.569725 307.584 
L 335.569725 307.584 
L 325.502918 307.584 
z
" clip-path="url(#pc573ef01b1)" style="fill: #2ca02c"/>
   </g>
   <g id="patch_76">
    <path d="M 338.086427 307.584 
L 348.153235 307.584 
L 348.153235 307.584 
L 338.086427 307.584 
z
" clip-path="url(#pc573ef01b1)" style="fill: #2ca02c"/>
   </g>
   <g id="patch_77">
    <path d="M 350.669937 307.584 
L 360.736744 307.584 
L 360.736744 307.584 
L 350.669937 307.584 
z
" clip-path="url(#pc573ef01b1)" style="fill: #2ca02c"/>
   </g>
   <g id="patch_78">
    <path d="M 363.253446 307.584 
L 373.320254 307.584 
L 373.320254 307.584 
L 363.253446 307.584 
z
" clip-path="url(#pc573ef01b1)" style="fill: #2ca02c"/>
   </g>
   <g id="patch_79">
    <path d="M 375.836956 307.584 
L 385.903763 307.584 
L 385.903763 307.584 
L 375.836956 307.584 
z
" clip-path="url(#pc573ef01b1)" style="fill: #2ca02c"/>
   </g>
   <g id="patch_80">
    <path d="M 388.420465 307.584 
L 398.487273 307.584 
L 398.487273 307.584 
L 388.420465 307.584 
z
" clip-path="url(#pc573ef01b1)" style="fill: #2ca02c"/>
   </g>
   <g id="matplotlib.axis_1">
    <g id="xtick_1">
     <g id="line2d_1">
      <defs>
       <path id="mde527b9cdf" d="M 0 0 
L 0 3.5 
" style="stroke: #000000; stroke-width: 0.8"/>
      </defs>
      <g>
       <use xlink:href="#mde527b9cdf" x="66.282622" y="307.584" style="stroke: #000000; stroke-width: 0.8"/>
      </g>
     </g>
     <g id="text_1">
      <!-- 0 -->
      <g transform="translate(63.101372 322.182437) scale(0.1 -0.1)">
       <defs>
        <path id="DejaVuSans-30" d="M 2034 4250 
Q 1547 4250 1301 3770 
Q 1056 3291 1056 2328 
Q 1056 1369 1301 889 
Q 1547 409 2034 409 
Q 2525 409 2770 889 
Q 3016 1369 3016 2328 
Q 3016 3291 2770 3770 
Q 2525 4250 2034 4250 
z
M 2034 4750 
Q 2819 4750 3233 4129 
Q 3647 3509 3647 2328 
Q 3647 1150 3233 529 
Q 2819 -91 2034 -91 
Q 1250 -91 836 529 
Q 422 1150 422 2328 
Q 422 3509 836 4129 
Q 1250 4750 2034 4750 
z
" transform="scale(0.015625)"/>
       </defs>
       <use xlink:href="#DejaVuSans-30"/>
      </g>
     </g>
    </g>
    <g id="xtick_2">
     <g id="line2d_2">
      <g>
       <use xlink:href="#mde527b9cdf" x="129.200169" y="307.584" style="stroke: #000000; stroke-width: 0.8"/>
      </g>
     </g>
     <g id="text_2">
      <!-- 5 -->
      <g transform="translate(126.018919 322.182437) scale(0.1 -0.1)">
       <defs>
        <path id="DejaVuSans-35" d="M 691 4666 
L 3169 4666 
L 3169 4134 
L 1269 4134 
L 1269 2991 
Q 1406 3038 1543 3061 
Q 1681 3084 1819 3084 
Q 2600 3084 3056 2656 
Q 3513 2228 3513 1497 
Q 3513 744 3044 326 
Q 2575 -91 1722 -91 
Q 1428 -91 1123 -41 
Q 819 9 494 109 
L 494 744 
Q 775 591 1075 516 
Q 1375 441 1709 441 
Q 2250 441 2565 725 
Q 2881 1009 2881 1497 
Q 2881 1984 2565 2268 
Q 2250 2553 1709 2553 
Q 1456 2553 1204 2497 
Q 953 2441 691 2322 
L 691 4666 
z
" transform="scale(0.015625)"/>
       </defs>
       <use xlink:href="#DejaVuSans-35"/>
      </g>
     </g>
    </g>
    <g id="xtick_3">
     <g id="line2d_3">
      <g>
       <use xlink:href="#mde527b9cdf" x="192.117717" y="307.584" style="stroke: #000000; stroke-width: 0.8"/>
      </g>
     </g>
     <g id="text_3">
      <!-- 10 -->
      <g transform="translate(185.755217 322.182437) scale(0.1 -0.1)">
       <defs>
        <path id="DejaVuSans-31" d="M 794 531 
L 1825 531 
L 1825 4091 
L 703 3866 
L 703 4441 
L 1819 4666 
L 2450 4666 
L 2450 531 
L 3481 531 
L 3481 0 
L 794 0 
L 794 531 
z
" transform="scale(0.015625)"/>
       </defs>
       <use xlink:href="#DejaVuSans-31"/>
       <use xlink:href="#DejaVuSans-30" transform="translate(63.623047 0)"/>
      </g>
     </g>
    </g>
    <g id="xtick_4">
     <g id="line2d_4">
      <g>
       <use xlink:href="#mde527b9cdf" x="255.035264" y="307.584" style="stroke: #000000; stroke-width: 0.8"/>
      </g>
     </g>
     <g id="text_4">
      <!-- 15 -->
      <g transform="translate(248.672764 322.182437) scale(0.1 -0.1)">
       <use xlink:href="#DejaVuSans-31"/>
       <use xlink:href="#DejaVuSans-35" transform="translate(63.623047 0)"/>
      </g>
     </g>
    </g>
    <g id="xtick_5">
     <g id="line2d_5">
      <g>
       <use xlink:href="#mde527b9cdf" x="317.952812" y="307.584" style="stroke: #000000; stroke-width: 0.8"/>
      </g>
     </g>
     <g id="text_5">
      <!-- 20 -->
      <g transform="translate(311.590312 322.182437) scale(0.1 -0.1)">
       <defs>
        <path id="DejaVuSans-32" d="M 1228 531 
L 3431 531 
L 3431 0 
L 469 0 
L 469 531 
Q 828 903 1448 1529 
Q 2069 2156 2228 2338 
Q 2531 2678 2651 2914 
Q 2772 3150 2772 3378 
Q 2772 3750 2511 3984 
Q 2250 4219 1831 4219 
Q 1534 4219 1204 4116 
Q 875 4013 500 3803 
L 500 4441 
Q 881 4594 1212 4672 
Q 1544 4750 1819 4750 
Q 2544 4750 2975 4387 
Q 3406 4025 3406 3419 
Q 3406 3131 3298 2873 
Q 3191 2616 2906 2266 
Q 2828 2175 2409 1742 
Q 1991 1309 1228 531 
z
" transform="scale(0.015625)"/>
       </defs>
       <use xlink:href="#DejaVuSans-32"/>
       <use xlink:href="#DejaVuSans-30" transform="translate(63.623047 0)"/>
      </g>
     </g>
    </g>
    <g id="xtick_6">
     <g id="line2d_6">
      <g>
       <use xlink:href="#mde527b9cdf" x="380.870359" y="307.584" style="stroke: #000000; stroke-width: 0.8"/>
      </g>
     </g>
     <g id="text_6">
      <!-- 25 -->
      <g transform="translate(374.507859 322.182437) scale(0.1 -0.1)">
       <use xlink:href="#DejaVuSans-32"/>
       <use xlink:href="#DejaVuSans-35" transform="translate(63.623047 0)"/>
      </g>
     </g>
    </g>
    <g id="text_7">
     <!-- lead months -->
     <g transform="translate(205.035 335.860562) scale(0.1 -0.1)">
      <defs>
       <path id="DejaVuSans-6c" d="M 603 4863 
L 1178 4863 
L 1178 0 
L 603 0 
L 603 4863 
z
" transform="scale(0.015625)"/>
       <path id="DejaVuSans-65" d="M 3597 1894 
L 3597 1613 
L 953 1613 
Q 991 1019 1311 708 
Q 1631 397 2203 397 
Q 2534 397 2845 478 
Q 3156 559 3463 722 
L 3463 178 
Q 3153 47 2828 -22 
Q 2503 -91 2169 -91 
Q 1331 -91 842 396 
Q 353 884 353 1716 
Q 353 2575 817 3079 
Q 1281 3584 2069 3584 
Q 2775 3584 3186 3129 
Q 3597 2675 3597 1894 
z
M 3022 2063 
Q 3016 2534 2758 2815 
Q 2500 3097 2075 3097 
Q 1594 3097 1305 2825 
Q 1016 2553 972 2059 
L 3022 2063 
z
" transform="scale(0.015625)"/>
       <path id="DejaVuSans-61" d="M 2194 1759 
Q 1497 1759 1228 1600 
Q 959 1441 959 1056 
Q 959 750 1161 570 
Q 1363 391 1709 391 
Q 2188 391 2477 730 
Q 2766 1069 2766 1631 
L 2766 1759 
L 2194 1759 
z
M 3341 1997 
L 3341 0 
L 2766 0 
L 2766 531 
Q 2569 213 2275 61 
Q 1981 -91 1556 -91 
Q 1019 -91 701 211 
Q 384 513 384 1019 
Q 384 1609 779 1909 
Q 1175 2209 1959 2209 
L 2766 2209 
L 2766 2266 
Q 2766 2663 2505 2880 
Q 2244 3097 1772 3097 
Q 1472 3097 1187 3025 
Q 903 2953 641 2809 
L 641 3341 
Q 956 3463 1253 3523 
Q 1550 3584 1831 3584 
Q 2591 3584 2966 3190 
Q 3341 2797 3341 1997 
z
" transform="scale(0.015625)"/>
       <path id="DejaVuSans-64" d="M 2906 2969 
L 2906 4863 
L 3481 4863 
L 3481 0 
L 2906 0 
L 2906 525 
Q 2725 213 2448 61 
Q 2172 -91 1784 -91 
Q 1150 -91 751 415 
Q 353 922 353 1747 
Q 353 2572 751 3078 
Q 1150 3584 1784 3584 
Q 2172 3584 2448 3432 
Q 2725 3281 2906 2969 
z
M 947 1747 
Q 947 1113 1208 752 
Q 1469 391 1925 391 
Q 2381 391 2643 752 
Q 2906 1113 2906 1747 
Q 2906 2381 2643 2742 
Q 2381 3103 1925 3103 
Q 1469 3103 1208 2742 
Q 947 2381 947 1747 
z
" transform="scale(0.015625)"/>
       <path id="DejaVuSans-20" transform="scale(0.015625)"/>
       <path id="DejaVuSans-6d" d="M 3328 2828 
Q 3544 3216 3844 3400 
Q 4144 3584 4550 3584 
Q 5097 3584 5394 3201 
Q 5691 2819 5691 2113 
L 5691 0 
L 5113 0 
L 5113 2094 
Q 5113 2597 4934 2840 
Q 4756 3084 4391 3084 
Q 3944 3084 3684 2787 
Q 3425 2491 3425 1978 
L 3425 0 
L 2847 0 
L 2847 2094 
Q 2847 2600 2669 2842 
Q 2491 3084 2119 3084 
Q 1678 3084 1418 2786 
Q 1159 2488 1159 1978 
L 1159 0 
L 581 0 
L 581 3500 
L 1159 3500 
L 1159 2956 
Q 1356 3278 1631 3431 
Q 1906 3584 2284 3584 
Q 2666 3584 2933 3390 
Q 3200 3197 3328 2828 
z
" transform="scale(0.015625)"/>
       <path id="DejaVuSans-6f" d="M 1959 3097 
Q 1497 3097 1228 2736 
Q 959 2375 959 1747 
Q 959 1119 1226 758 
Q 1494 397 1959 397 
Q 2419 397 2687 759 
Q 2956 1122 2956 1747 
Q 2956 2369 2687 2733 
Q 2419 3097 1959 3097 
z
M 1959 3584 
Q 2709 3584 3137 3096 
Q 3566 2609 3566 1747 
Q 3566 888 3137 398 
Q 2709 -91 1959 -91 
Q 1206 -91 779 398 
Q 353 888 353 1747 
Q 353 2609 779 3096 
Q 1206 3584 1959 3584 
z
" transform="scale(0.015625)"/>
       <path id="DejaVuSans-6e" d="M 3513 2113 
L 3513 0 
L 2938 0 
L 2938 2094 
Q 2938 2591 2744 2837 
Q 2550 3084 2163 3084 
Q 1697 3084 1428 2787 
Q 1159 2491 1159 1978 
L 1159 0 
L 581 0 
L 581 3500 
L 1159 3500 
L 1159 2956 
Q 1366 3272 1645 3428 
Q 1925 3584 2291 3584 
Q 2894 3584 3203 3211 
Q 3513 2838 3513 2113 
z
" transform="scale(0.015625)"/>
       <path id="DejaVuSans-74" d="M 1172 4494 
L 1172 3500 
L 2356 3500 
L 2356 3053 
L 1172 3053 
L 1172 1153 
Q 1172 725 1289 603 
Q 1406 481 1766 481 
L 2356 481 
L 2356 0 
L 1766 0 
Q 1100 0 847 248 
Q 594 497 594 1153 
L 594 3053 
L 172 3053 
L 172 3500 
L 594 3500 
L 594 4494 
L 1172 4494 
z
" transform="scale(0.015625)"/>
       <path id="DejaVuSans-68" d="M 3513 2113 
L 3513 0 
L 2938 0 
L 2938 2094 
Q 2938 2591 2744 2837 
Q 2550 3084 2163 3084 
Q 1697 3084 1428 2787 
Q 1159 2491 1159 1978 
L 1159 0 
L 581 0 
L 581 4863 
L 1159 4863 
L 1159 2956 
Q 1366 3272 1645 3428 
Q 1925 3584 2291 3584 
Q 2894 3584 3203 3211 
Q 3513 2838 3513 2113 
z
" transform="scale(0.015625)"/>
       <path id="DejaVuSans-73" d="M 2834 3397 
L 2834 2853 
Q 2591 2978 2328 3040 
Q 2066 3103 1784 3103 
Q 1356 3103 1142 2972 
Q 928 2841 928 2578 
Q 928 2378 1081 2264 
Q 1234 2150 1697 2047 
L 1894 2003 
Q 2506 1872 2764 1633 
Q 3022 1394 3022 966 
Q 3022 478 2636 193 
Q 2250 -91 1575 -91 
Q 1294 -91 989 -36 
Q 684 19 347 128 
L 347 722 
Q 666 556 975 473 
Q 1284 391 1588 391 
Q 1994 391 2212 530 
Q 2431 669 2431 922 
Q 2431 1156 2273 1281 
Q 2116 1406 1581 1522 
L 1381 1569 
Q 847 1681 609 1914 
Q 372 2147 372 2553 
Q 372 3047 722 3315 
Q 1072 3584 1716 3584 
Q 2034 3584 2315 3537 
Q 2597 3491 2834 3397 
z
" transform="scale(0.015625)"/>
      </defs>
      <use xlink:href="#DejaVuSans-6c"/>
      <use xlink:href="#DejaVuSans-65" transform="translate(27.783203 0)"/>
      <use xlink:href="#DejaVuSans-61" transform="translate(89.306641 0)"/>
      <use xlink:href="#DejaVuSans-64" transform="translate(150.585938 0)"/>
      <use xlink:href="#DejaVuSans-20" transform="translate(214.0625 0)"/>
      <use xlink:href="#DejaVuSans-6d" transform="translate(245.849609 0)"/>
      <use xlink:href="#DejaVuSans-6f" transform="translate(343.261719 0)"/>
      <use xlink:href="#DejaVuSans-6e" transform="translate(404.443359 0)"/>
      <use xlink:href="#DejaVuSans-74" transform="translate(467.822266 0)"/>
      <use xlink:href="#DejaVuSans-68" transform="translate(507.03125 0)"/>
      <use xlink:href="#DejaVuSans-73" transform="translate(570.410156 0)"/>
     </g>
    </g>
   </g>
   <g id="matplotlib.axis_2">
    <g id="ytick_1">
     <g id="line2d_7">
      <defs>
       <path id="m2591f6a6f0" d="M 0 0 
L -3.5 0 
" style="stroke: #000000; stroke-width: 0.8"/>
      </defs>
      <g>
       <use xlink:href="#m2591f6a6f0" x="57.6" y="307.584" style="stroke: #000000; stroke-width: 0.8"/>
      </g>
     </g>
     <g id="text_8">
      <!-- 0 -->
      <g transform="translate(44.2375 311.383219) scale(0.1 -0.1)">
       <use xlink:href="#DejaVuSans-30"/>
      </g>
     </g>
    </g>
    <g id="ytick_2">
     <g id="line2d_8">
      <g>
       <use xlink:href="#m2591f6a6f0" x="57.6" y="278.016" style="stroke: #000000; stroke-width: 0.8"/>
      </g>
     </g>
     <g id="text_9">
      <!-- 1000 -->
      <g transform="translate(25.15 281.815219) scale(0.1 -0.1)">
       <use xlink:href="#DejaVuSans-31"/>
       <use xlink:href="#DejaVuSans-30" transform="translate(63.623047 0)"/>
       <use xlink:href="#DejaVuSans-30" transform="translate(127.246094 0)"/>
       <use xlink:href="#DejaVuSans-30" transform="translate(190.869141 0)"/>
      </g>
     </g>
    </g>
    <g id="ytick_3">
     <g id="line2d_9">
      <g>
       <use xlink:href="#m2591f6a6f0" x="57.6" y="248.448" style="stroke: #000000; stroke-width: 0.8"/>
      </g>
     </g>
     <g id="text_10">
      <!-- 2000 -->
      <g transform="translate(25.15 252.247219) scale(0.1 -0.1)">
       <use xlink:href="#DejaVuSans-32"/>
       <use xlink:href="#DejaVuSans-30" transform="translate(63.623047 0)"/>
       <use xlink:href="#DejaVuSans-30" transform="translate(127.246094 0)"/>
       <use xlink:href="#DejaVuSans-30" transform="translate(190.869141 0)"/>
      </g>
     </g>
    </g>
    <g id="ytick_4">
     <g id="line2d_10">
      <g>
       <use xlink:href="#m2591f6a6f0" x="57.6" y="218.88" style="stroke: #000000; stroke-width: 0.8"/>
      </g>
     </g>
     <g id="text_11">
      <!-- 3000 -->
      <g transform="translate(25.15 222.679219) scale(0.1 -0.1)">
       <defs>
        <path id="DejaVuSans-33" d="M 2597 2516 
Q 3050 2419 3304 2112 
Q 3559 1806 3559 1356 
Q 3559 666 3084 287 
Q 2609 -91 1734 -91 
Q 1441 -91 1130 -33 
Q 819 25 488 141 
L 488 750 
Q 750 597 1062 519 
Q 1375 441 1716 441 
Q 2309 441 2620 675 
Q 2931 909 2931 1356 
Q 2931 1769 2642 2001 
Q 2353 2234 1838 2234 
L 1294 2234 
L 1294 2753 
L 1863 2753 
Q 2328 2753 2575 2939 
Q 2822 3125 2822 3475 
Q 2822 3834 2567 4026 
Q 2313 4219 1838 4219 
Q 1578 4219 1281 4162 
Q 984 4106 628 3988 
L 628 4550 
Q 988 4650 1302 4700 
Q 1616 4750 1894 4750 
Q 2613 4750 3031 4423 
Q 3450 4097 3450 3541 
Q 3450 3153 3228 2886 
Q 3006 2619 2597 2516 
z
" transform="scale(0.015625)"/>
       </defs>
       <use xlink:href="#DejaVuSans-33"/>
       <use xlink:href="#DejaVuSans-30" transform="translate(63.623047 0)"/>
       <use xlink:href="#DejaVuSans-30" transform="translate(127.246094 0)"/>
       <use xlink:href="#DejaVuSans-30" transform="translate(190.869141 0)"/>
      </g>
     </g>
    </g>
    <g id="ytick_5">
     <g id="line2d_11">
      <g>
       <use xlink:href="#m2591f6a6f0" x="57.6" y="189.312" style="stroke: #000000; stroke-width: 0.8"/>
      </g>
     </g>
     <g id="text_12">
      <!-- 4000 -->
      <g transform="translate(25.15 193.111219) scale(0.1 -0.1)">
       <defs>
        <path id="DejaVuSans-34" d="M 2419 4116 
L 825 1625 
L 2419 1625 
L 2419 4116 
z
M 2253 4666 
L 3047 4666 
L 3047 1625 
L 3713 1625 
L 3713 1100 
L 3047 1100 
L 3047 0 
L 2419 0 
L 2419 1100 
L 313 1100 
L 313 1709 
L 2253 4666 
z
" transform="scale(0.015625)"/>
       </defs>
       <use xlink:href="#DejaVuSans-34"/>
       <use xlink:href="#DejaVuSans-30" transform="translate(63.623047 0)"/>
       <use xlink:href="#DejaVuSans-30" transform="translate(127.246094 0)"/>
       <use xlink:href="#DejaVuSans-30" transform="translate(190.869141 0)"/>
      </g>
     </g>
    </g>
    <g id="ytick_6">
     <g id="line2d_12">
      <g>
       <use xlink:href="#m2591f6a6f0" x="57.6" y="159.744" style="stroke: #000000; stroke-width: 0.8"/>
      </g>
     </g>
     <g id="text_13">
      <!-- 5000 -->
      <g transform="translate(25.15 163.543219) scale(0.1 -0.1)">
       <use xlink:href="#DejaVuSans-35"/>
       <use xlink:href="#DejaVuSans-30" transform="translate(63.623047 0)"/>
       <use xlink:href="#DejaVuSans-30" transform="translate(127.246094 0)"/>
       <use xlink:href="#DejaVuSans-30" transform="translate(190.869141 0)"/>
      </g>
     </g>
    </g>
    <g id="ytick_7">
     <g id="line2d_13">
      <g>
       <use xlink:href="#m2591f6a6f0" x="57.6" y="130.176" style="stroke: #000000; stroke-width: 0.8"/>
      </g>
     </g>
     <g id="text_14">
      <!-- 6000 -->
      <g transform="translate(25.15 133.975219) scale(0.1 -0.1)">
       <defs>
        <path id="DejaVuSans-36" d="M 2113 2584 
Q 1688 2584 1439 2293 
Q 1191 2003 1191 1497 
Q 1191 994 1439 701 
Q 1688 409 2113 409 
Q 2538 409 2786 701 
Q 3034 994 3034 1497 
Q 3034 2003 2786 2293 
Q 2538 2584 2113 2584 
z
M 3366 4563 
L 3366 3988 
Q 3128 4100 2886 4159 
Q 2644 4219 2406 4219 
Q 1781 4219 1451 3797 
Q 1122 3375 1075 2522 
Q 1259 2794 1537 2939 
Q 1816 3084 2150 3084 
Q 2853 3084 3261 2657 
Q 3669 2231 3669 1497 
Q 3669 778 3244 343 
Q 2819 -91 2113 -91 
Q 1303 -91 875 529 
Q 447 1150 447 2328 
Q 447 3434 972 4092 
Q 1497 4750 2381 4750 
Q 2619 4750 2861 4703 
Q 3103 4656 3366 4563 
z
" transform="scale(0.015625)"/>
       </defs>
       <use xlink:href="#DejaVuSans-36"/>
       <use xlink:href="#DejaVuSans-30" transform="translate(63.623047 0)"/>
       <use xlink:href="#DejaVuSans-30" transform="translate(127.246094 0)"/>
       <use xlink:href="#DejaVuSans-30" transform="translate(190.869141 0)"/>
      </g>
     </g>
    </g>
    <g id="ytick_8">
     <g id="line2d_14">
      <g>
       <use xlink:href="#m2591f6a6f0" x="57.6" y="100.608" style="stroke: #000000; stroke-width: 0.8"/>
      </g>
     </g>
     <g id="text_15">
      <!-- 7000 -->
      <g transform="translate(25.15 104.407219) scale(0.1 -0.1)">
       <defs>
        <path id="DejaVuSans-37" d="M 525 4666 
L 3525 4666 
L 3525 4397 
L 1831 0 
L 1172 0 
L 2766 4134 
L 525 4134 
L 525 4666 
z
" transform="scale(0.015625)"/>
       </defs>
       <use xlink:href="#DejaVuSans-37"/>
       <use xlink:href="#DejaVuSans-30" transform="translate(63.623047 0)"/>
       <use xlink:href="#DejaVuSans-30" transform="translate(127.246094 0)"/>
       <use xlink:href="#DejaVuSans-30" transform="translate(190.869141 0)"/>
      </g>
     </g>
    </g>
    <g id="ytick_9">
     <g id="line2d_15">
      <g>
       <use xlink:href="#m2591f6a6f0" x="57.6" y="71.04" style="stroke: #000000; stroke-width: 0.8"/>
      </g>
     </g>
     <g id="text_16">
      <!-- 8000 -->
      <g transform="translate(25.15 74.839219) scale(0.1 -0.1)">
       <defs>
        <path id="DejaVuSans-38" d="M 2034 2216 
Q 1584 2216 1326 1975 
Q 1069 1734 1069 1313 
Q 1069 891 1326 650 
Q 1584 409 2034 409 
Q 2484 409 2743 651 
Q 3003 894 3003 1313 
Q 3003 1734 2745 1975 
Q 2488 2216 2034 2216 
z
M 1403 2484 
Q 997 2584 770 2862 
Q 544 3141 544 3541 
Q 544 4100 942 4425 
Q 1341 4750 2034 4750 
Q 2731 4750 3128 4425 
Q 3525 4100 3525 3541 
Q 3525 3141 3298 2862 
Q 3072 2584 2669 2484 
Q 3125 2378 3379 2068 
Q 3634 1759 3634 1313 
Q 3634 634 3220 271 
Q 2806 -91 2034 -91 
Q 1263 -91 848 271 
Q 434 634 434 1313 
Q 434 1759 690 2068 
Q 947 2378 1403 2484 
z
M 1172 3481 
Q 1172 3119 1398 2916 
Q 1625 2713 2034 2713 
Q 2441 2713 2670 2916 
Q 2900 3119 2900 3481 
Q 2900 3844 2670 4047 
Q 2441 4250 2034 4250 
Q 1625 4250 1398 4047 
Q 1172 3844 1172 3481 
z
" transform="scale(0.015625)"/>
       </defs>
       <use xlink:href="#DejaVuSans-38"/>
       <use xlink:href="#DejaVuSans-30" transform="translate(63.623047 0)"/>
       <use xlink:href="#DejaVuSans-30" transform="translate(127.246094 0)"/>
       <use xlink:href="#DejaVuSans-30" transform="translate(190.869141 0)"/>
      </g>
     </g>
    </g>
    <g id="ytick_10">
     <g id="line2d_16">
      <g>
       <use xlink:href="#m2591f6a6f0" x="57.6" y="41.472" style="stroke: #000000; stroke-width: 0.8"/>
      </g>
     </g>
     <g id="text_17">
      <!-- 9000 -->
      <g transform="translate(25.15 45.271219) scale(0.1 -0.1)">
       <defs>
        <path id="DejaVuSans-39" d="M 703 97 
L 703 672 
Q 941 559 1184 500 
Q 1428 441 1663 441 
Q 2288 441 2617 861 
Q 2947 1281 2994 2138 
Q 2813 1869 2534 1725 
Q 2256 1581 1919 1581 
Q 1219 1581 811 2004 
Q 403 2428 403 3163 
Q 403 3881 828 4315 
Q 1253 4750 1959 4750 
Q 2769 4750 3195 4129 
Q 3622 3509 3622 2328 
Q 3622 1225 3098 567 
Q 2575 -91 1691 -91 
Q 1453 -91 1209 -44 
Q 966 3 703 97 
z
M 1959 2075 
Q 2384 2075 2632 2365 
Q 2881 2656 2881 3163 
Q 2881 3666 2632 3958 
Q 2384 4250 1959 4250 
Q 1534 4250 1286 3958 
Q 1038 3666 1038 3163 
Q 1038 2656 1286 2365 
Q 1534 2075 1959 2075 
z
" transform="scale(0.015625)"/>
       </defs>
       <use xlink:href="#DejaVuSans-39"/>
       <use xlink:href="#DejaVuSans-30" transform="translate(63.623047 0)"/>
       <use xlink:href="#DejaVuSans-30" transform="translate(127.246094 0)"/>
       <use xlink:href="#DejaVuSans-30" transform="translate(190.869141 0)"/>
      </g>
     </g>
    </g>
    <g id="text_18">
     <!-- number of cancellations per month -->
     <g transform="translate(19.070312 262.583469) rotate(-90) scale(0.1 -0.1)">
      <defs>
       <path id="DejaVuSans-75" d="M 544 1381 
L 544 3500 
L 1119 3500 
L 1119 1403 
Q 1119 906 1312 657 
Q 1506 409 1894 409 
Q 2359 409 2629 706 
Q 2900 1003 2900 1516 
L 2900 3500 
L 3475 3500 
L 3475 0 
L 2900 0 
L 2900 538 
Q 2691 219 2414 64 
Q 2138 -91 1772 -91 
Q 1169 -91 856 284 
Q 544 659 544 1381 
z
M 1991 3584 
L 1991 3584 
z
" transform="scale(0.015625)"/>
       <path id="DejaVuSans-62" d="M 3116 1747 
Q 3116 2381 2855 2742 
Q 2594 3103 2138 3103 
Q 1681 3103 1420 2742 
Q 1159 2381 1159 1747 
Q 1159 1113 1420 752 
Q 1681 391 2138 391 
Q 2594 391 2855 752 
Q 3116 1113 3116 1747 
z
M 1159 2969 
Q 1341 3281 1617 3432 
Q 1894 3584 2278 3584 
Q 2916 3584 3314 3078 
Q 3713 2572 3713 1747 
Q 3713 922 3314 415 
Q 2916 -91 2278 -91 
Q 1894 -91 1617 61 
Q 1341 213 1159 525 
L 1159 0 
L 581 0 
L 581 4863 
L 1159 4863 
L 1159 2969 
z
" transform="scale(0.015625)"/>
       <path id="DejaVuSans-72" d="M 2631 2963 
Q 2534 3019 2420 3045 
Q 2306 3072 2169 3072 
Q 1681 3072 1420 2755 
Q 1159 2438 1159 1844 
L 1159 0 
L 581 0 
L 581 3500 
L 1159 3500 
L 1159 2956 
Q 1341 3275 1631 3429 
Q 1922 3584 2338 3584 
Q 2397 3584 2469 3576 
Q 2541 3569 2628 3553 
L 2631 2963 
z
" transform="scale(0.015625)"/>
       <path id="DejaVuSans-66" d="M 2375 4863 
L 2375 4384 
L 1825 4384 
Q 1516 4384 1395 4259 
Q 1275 4134 1275 3809 
L 1275 3500 
L 2222 3500 
L 2222 3053 
L 1275 3053 
L 1275 0 
L 697 0 
L 697 3053 
L 147 3053 
L 147 3500 
L 697 3500 
L 697 3744 
Q 697 4328 969 4595 
Q 1241 4863 1831 4863 
L 2375 4863 
z
" transform="scale(0.015625)"/>
       <path id="DejaVuSans-63" d="M 3122 3366 
L 3122 2828 
Q 2878 2963 2633 3030 
Q 2388 3097 2138 3097 
Q 1578 3097 1268 2742 
Q 959 2388 959 1747 
Q 959 1106 1268 751 
Q 1578 397 2138 397 
Q 2388 397 2633 464 
Q 2878 531 3122 666 
L 3122 134 
Q 2881 22 2623 -34 
Q 2366 -91 2075 -91 
Q 1284 -91 818 406 
Q 353 903 353 1747 
Q 353 2603 823 3093 
Q 1294 3584 2113 3584 
Q 2378 3584 2631 3529 
Q 2884 3475 3122 3366 
z
" transform="scale(0.015625)"/>
       <path id="DejaVuSans-69" d="M 603 3500 
L 1178 3500 
L 1178 0 
L 603 0 
L 603 3500 
z
M 603 4863 
L 1178 4863 
L 1178 4134 
L 603 4134 
L 603 4863 
z
" transform="scale(0.015625)"/>
       <path id="DejaVuSans-70" d="M 1159 525 
L 1159 -1331 
L 581 -1331 
L 581 3500 
L 1159 3500 
L 1159 2969 
Q 1341 3281 1617 3432 
Q 1894 3584 2278 3584 
Q 2916 3584 3314 3078 
Q 3713 2572 3713 1747 
Q 3713 922 3314 415 
Q 2916 -91 2278 -91 
Q 1894 -91 1617 61 
Q 1341 213 1159 525 
z
M 3116 1747 
Q 3116 2381 2855 2742 
Q 2594 3103 2138 3103 
Q 1681 3103 1420 2742 
Q 1159 2381 1159 1747 
Q 1159 1113 1420 752 
Q 1681 391 2138 391 
Q 2594 391 2855 752 
Q 3116 1113 3116 1747 
z
" transform="scale(0.015625)"/>
      </defs>
      <use xlink:href="#DejaVuSans-6e"/>
      <use xlink:href="#DejaVuSans-75" transform="translate(63.378906 0)"/>
      <use xlink:href="#DejaVuSans-6d" transform="translate(126.757812 0)"/>
      <use xlink:href="#DejaVuSans-62" transform="translate(224.169922 0)"/>
      <use xlink:href="#DejaVuSans-65" transform="translate(287.646484 0)"/>
      <use xlink:href="#DejaVuSans-72" transform="translate(349.169922 0)"/>
      <use xlink:href="#DejaVuSans-20" transform="translate(390.283203 0)"/>
      <use xlink:href="#DejaVuSans-6f" transform="translate(422.070312 0)"/>
      <use xlink:href="#DejaVuSans-66" transform="translate(483.251953 0)"/>
      <use xlink:href="#DejaVuSans-20" transform="translate(518.457031 0)"/>
      <use xlink:href="#DejaVuSans-63" transform="translate(550.244141 0)"/>
      <use xlink:href="#DejaVuSans-61" transform="translate(605.224609 0)"/>
      <use xlink:href="#DejaVuSans-6e" transform="translate(666.503906 0)"/>
      <use xlink:href="#DejaVuSans-63" transform="translate(729.882812 0)"/>
      <use xlink:href="#DejaVuSans-65" transform="translate(784.863281 0)"/>
      <use xlink:href="#DejaVuSans-6c" transform="translate(846.386719 0)"/>
      <use xlink:href="#DejaVuSans-6c" transform="translate(874.169922 0)"/>
      <use xlink:href="#DejaVuSans-61" transform="translate(901.953125 0)"/>
      <use xlink:href="#DejaVuSans-74" transform="translate(963.232422 0)"/>
      <use xlink:href="#DejaVuSans-69" transform="translate(1002.441406 0)"/>
      <use xlink:href="#DejaVuSans-6f" transform="translate(1030.224609 0)"/>
      <use xlink:href="#DejaVuSans-6e" transform="translate(1091.40625 0)"/>
      <use xlink:href="#DejaVuSans-73" transform="translate(1154.785156 0)"/>
      <use xlink:href="#DejaVuSans-20" transform="translate(1206.884766 0)"/>
      <use xlink:href="#DejaVuSans-70" transform="translate(1238.671875 0)"/>
      <use xlink:href="#DejaVuSans-65" transform="translate(1302.148438 0)"/>
      <use xlink:href="#DejaVuSans-72" transform="translate(1363.671875 0)"/>
      <use xlink:href="#DejaVuSans-20" transform="translate(1404.785156 0)"/>
      <use xlink:href="#DejaVuSans-6d" transform="translate(1436.572266 0)"/>
      <use xlink:href="#DejaVuSans-6f" transform="translate(1533.984375 0)"/>
      <use xlink:href="#DejaVuSans-6e" transform="translate(1595.166016 0)"/>
      <use xlink:href="#DejaVuSans-74" transform="translate(1658.544922 0)"/>
      <use xlink:href="#DejaVuSans-68" transform="translate(1697.753906 0)"/>
     </g>
    </g>
   </g>
   <g id="patch_81">
    <path d="M 57.6 307.584 
L 57.6 41.472 
" style="fill: none; stroke: #000000; stroke-width: 0.8; stroke-linejoin: miter; stroke-linecap: square"/>
   </g>
   <g id="patch_82">
    <path d="M 414.72 307.584 
L 414.72 41.472 
" style="fill: none; stroke: #000000; stroke-width: 0.8; stroke-linejoin: miter; stroke-linecap: square"/>
   </g>
   <g id="patch_83">
    <path d="M 57.6 307.584 
L 414.72 307.584 
" style="fill: none; stroke: #000000; stroke-width: 0.8; stroke-linejoin: miter; stroke-linecap: square"/>
   </g>
   <g id="patch_84">
    <path d="M 57.6 41.472 
L 414.72 41.472 
" style="fill: none; stroke: #000000; stroke-width: 0.8; stroke-linejoin: miter; stroke-linecap: square"/>
   </g>
   <g id="legend_1">
    <g id="patch_85">
     <path d="M 64.6 93.506375 
L 153.203125 93.506375 
Q 155.203125 93.506375 155.203125 91.506375 
L 155.203125 48.472 
Q 155.203125 46.472 153.203125 46.472 
L 64.6 46.472 
Q 62.6 46.472 62.6 48.472 
L 62.6 91.506375 
Q 62.6 93.506375 64.6 93.506375 
z
" style="fill: #ffffff; opacity: 0.8; stroke: #cccccc; stroke-linejoin: miter"/>
    </g>
    <g id="patch_86">
     <path d="M 66.6 58.070438 
L 86.6 58.070438 
L 86.6 51.070438 
L 66.6 51.070438 
z
" style="fill: #1f77b4"/>
    </g>
    <g id="text_19">
     <!-- No deposit -->
     <g transform="translate(94.6 58.070438) scale(0.1 -0.1)">
      <defs>
       <path id="DejaVuSans-4e" d="M 628 4666 
L 1478 4666 
L 3547 763 
L 3547 4666 
L 4159 4666 
L 4159 0 
L 3309 0 
L 1241 3903 
L 1241 0 
L 628 0 
L 628 4666 
z
" transform="scale(0.015625)"/>
      </defs>
      <use xlink:href="#DejaVuSans-4e"/>
      <use xlink:href="#DejaVuSans-6f" transform="translate(74.804688 0)"/>
      <use xlink:href="#DejaVuSans-20" transform="translate(135.986328 0)"/>
      <use xlink:href="#DejaVuSans-64" transform="translate(167.773438 0)"/>
      <use xlink:href="#DejaVuSans-65" transform="translate(231.25 0)"/>
      <use xlink:href="#DejaVuSans-70" transform="translate(292.773438 0)"/>
      <use xlink:href="#DejaVuSans-6f" transform="translate(356.25 0)"/>
      <use xlink:href="#DejaVuSans-73" transform="translate(417.431641 0)"/>
      <use xlink:href="#DejaVuSans-69" transform="translate(469.53125 0)"/>
      <use xlink:href="#DejaVuSans-74" transform="translate(497.314453 0)"/>
     </g>
    </g>
    <g id="patch_87">
     <path d="M 66.6 72.748563 
L 86.6 72.748563 
L 86.6 65.748563 
L 66.6 65.748563 
z
" style="fill: #ff7f0e"/>
    </g>
    <g id="text_20">
     <!-- No Refund -->
     <g transform="translate(94.6 72.748563) scale(0.1 -0.1)">
      <defs>
       <path id="DejaVuSans-52" d="M 2841 2188 
Q 3044 2119 3236 1894 
Q 3428 1669 3622 1275 
L 4263 0 
L 3584 0 
L 2988 1197 
Q 2756 1666 2539 1819 
Q 2322 1972 1947 1972 
L 1259 1972 
L 1259 0 
L 628 0 
L 628 4666 
L 2053 4666 
Q 2853 4666 3247 4331 
Q 3641 3997 3641 3322 
Q 3641 2881 3436 2590 
Q 3231 2300 2841 2188 
z
M 1259 4147 
L 1259 2491 
L 2053 2491 
Q 2509 2491 2742 2702 
Q 2975 2913 2975 3322 
Q 2975 3731 2742 3939 
Q 2509 4147 2053 4147 
L 1259 4147 
z
" transform="scale(0.015625)"/>
      </defs>
      <use xlink:href="#DejaVuSans-4e"/>
      <use xlink:href="#DejaVuSans-6f" transform="translate(74.804688 0)"/>
      <use xlink:href="#DejaVuSans-20" transform="translate(135.986328 0)"/>
      <use xlink:href="#DejaVuSans-52" transform="translate(167.773438 0)"/>
      <use xlink:href="#DejaVuSans-65" transform="translate(232.755859 0)"/>
      <use xlink:href="#DejaVuSans-66" transform="translate(294.279297 0)"/>
      <use xlink:href="#DejaVuSans-75" transform="translate(329.484375 0)"/>
      <use xlink:href="#DejaVuSans-6e" transform="translate(392.863281 0)"/>
      <use xlink:href="#DejaVuSans-64" transform="translate(456.242188 0)"/>
     </g>
    </g>
    <g id="patch_88">
     <path d="M 66.6 87.426688 
L 86.6 87.426688 
L 86.6 80.426688 
L 66.6 80.426688 
z
" style="fill: #2ca02c"/>
    </g>
    <g id="text_21">
     <!-- Refundable -->
     <g transform="translate(94.6 87.426688) scale(0.1 -0.1)">
      <use xlink:href="#DejaVuSans-52"/>
      <use xlink:href="#DejaVuSans-65" transform="translate(64.982422 0)"/>
      <use xlink:href="#DejaVuSans-66" transform="translate(126.505859 0)"/>
      <use xlink:href="#DejaVuSans-75" transform="translate(161.710938 0)"/>
      <use xlink:href="#DejaVuSans-6e" transform="translate(225.089844 0)"/>
      <use xlink:href="#DejaVuSans-64" transform="translate(288.46875 0)"/>
      <use xlink:href="#DejaVuSans-61" transform="translate(351.945312 0)"/>
      <use xlink:href="#DejaVuSans-62" transform="translate(413.224609 0)"/>
      <use xlink:href="#DejaVuSans-6c" transform="translate(476.701172 0)"/>
      <use xlink:href="#DejaVuSans-65" transform="translate(504.484375 0)"/>
     </g>
    </g>
   </g>
  </g>
  <g id="axes_2">
   <g id="patch_89">
    <path d="M 229.0176 206.46144 
L 407.5776 206.46144 
L 407.5776 46.79424 
L 229.0176 46.79424 
z
" style="fill: #ffffff"/>
   </g>
   <g id="matplotlib.axis_3">
    <g id="xtick_7">
     <g id="line2d_17">
      <g>
       <use xlink:href="#mde527b9cdf" x="230.640873" y="206.46144" style="stroke: #000000; stroke-width: 0.8"/>
      </g>
     </g>
     <g id="text_22">
      <!-- 0 -->
      <g transform="translate(228.391389 218.834347) scale(0.070711 -0.070711)">
       <use xlink:href="#DejaVuSans-30"/>
      </g>
     </g>
    </g>
    <g id="xtick_8">
     <g id="line2d_18">
      <g>
       <use xlink:href="#mde527b9cdf" x="263.106327" y="206.46144" style="stroke: #000000; stroke-width: 0.8"/>
      </g>
     </g>
     <g id="text_23">
      <!-- 5 -->
      <g transform="translate(260.856844 218.834347) scale(0.070711 -0.070711)">
       <use xlink:href="#DejaVuSans-35"/>
      </g>
     </g>
    </g>
    <g id="xtick_9">
     <g id="line2d_19">
      <g>
       <use xlink:href="#mde527b9cdf" x="295.571782" y="206.46144" style="stroke: #000000; stroke-width: 0.8"/>
      </g>
     </g>
     <g id="text_24">
      <!-- 10 -->
      <g transform="translate(291.072815 218.834347) scale(0.070711 -0.070711)">
       <use xlink:href="#DejaVuSans-31"/>
       <use xlink:href="#DejaVuSans-30" transform="translate(63.623047 0)"/>
      </g>
     </g>
    </g>
    <g id="xtick_10">
     <g id="line2d_20">
      <g>
       <use xlink:href="#mde527b9cdf" x="328.037236" y="206.46144" style="stroke: #000000; stroke-width: 0.8"/>
      </g>
     </g>
     <g id="text_25">
      <!-- 15 -->
      <g transform="translate(323.538269 218.834347) scale(0.070711 -0.070711)">
       <use xlink:href="#DejaVuSans-31"/>
       <use xlink:href="#DejaVuSans-35" transform="translate(63.623047 0)"/>
      </g>
     </g>
    </g>
    <g id="xtick_11">
     <g id="line2d_21">
      <g>
       <use xlink:href="#mde527b9cdf" x="360.502691" y="206.46144" style="stroke: #000000; stroke-width: 0.8"/>
      </g>
     </g>
     <g id="text_26">
      <!-- 20 -->
      <g transform="translate(356.003724 218.834347) scale(0.070711 -0.070711)">
       <use xlink:href="#DejaVuSans-32"/>
       <use xlink:href="#DejaVuSans-30" transform="translate(63.623047 0)"/>
      </g>
     </g>
    </g>
    <g id="xtick_12">
     <g id="line2d_22">
      <g>
       <use xlink:href="#mde527b9cdf" x="392.968145" y="206.46144" style="stroke: #000000; stroke-width: 0.8"/>
      </g>
     </g>
     <g id="text_27">
      <!-- 25 -->
      <g transform="translate(388.469179 218.834347) scale(0.070711 -0.070711)">
       <use xlink:href="#DejaVuSans-32"/>
       <use xlink:href="#DejaVuSans-35" transform="translate(63.623047 0)"/>
      </g>
     </g>
    </g>
    <g id="text_28">
     <!-- lead months -->
     <g transform="translate(287.1726 231.903345) scale(0.1 -0.1)">
      <use xlink:href="#DejaVuSans-6c"/>
      <use xlink:href="#DejaVuSans-65" transform="translate(27.783203 0)"/>
      <use xlink:href="#DejaVuSans-61" transform="translate(89.306641 0)"/>
      <use xlink:href="#DejaVuSans-64" transform="translate(150.585938 0)"/>
      <use xlink:href="#DejaVuSans-20" transform="translate(214.0625 0)"/>
      <use xlink:href="#DejaVuSans-6d" transform="translate(245.849609 0)"/>
      <use xlink:href="#DejaVuSans-6f" transform="translate(343.261719 0)"/>
      <use xlink:href="#DejaVuSans-6e" transform="translate(404.443359 0)"/>
      <use xlink:href="#DejaVuSans-74" transform="translate(467.822266 0)"/>
      <use xlink:href="#DejaVuSans-68" transform="translate(507.03125 0)"/>
      <use xlink:href="#DejaVuSans-73" transform="translate(570.410156 0)"/>
     </g>
    </g>
   </g>
   <g id="matplotlib.axis_4">
    <g id="ytick_11">
     <g id="line2d_23">
      <g>
       <use xlink:href="#m2591f6a6f0" x="229.0176" y="199.20384" style="stroke: #000000; stroke-width: 0.8"/>
      </g>
     </g>
     <g id="text_29">
      <!-- 0 -->
      <g transform="translate(217.089229 202.146702) scale(0.07746 -0.07746)">
       <use xlink:href="#DejaVuSans-30"/>
      </g>
     </g>
    </g>
    <g id="ytick_12">
     <g id="line2d_24">
      <g>
       <use xlink:href="#m2591f6a6f0" x="229.0176" y="180.127483" style="stroke: #000000; stroke-width: 0.8"/>
      </g>
     </g>
     <g id="text_30">
      <!-- 5000 -->
      <g transform="translate(202.304115 183.070345) scale(0.07746 -0.07746)">
       <use xlink:href="#DejaVuSans-35"/>
       <use xlink:href="#DejaVuSans-30" transform="translate(63.623047 0)"/>
       <use xlink:href="#DejaVuSans-30" transform="translate(127.246094 0)"/>
       <use xlink:href="#DejaVuSans-30" transform="translate(190.869141 0)"/>
      </g>
     </g>
    </g>
    <g id="ytick_13">
     <g id="line2d_25">
      <g>
       <use xlink:href="#m2591f6a6f0" x="229.0176" y="161.051126" style="stroke: #000000; stroke-width: 0.8"/>
      </g>
     </g>
     <g id="text_31">
      <!-- 10000 -->
      <g transform="translate(197.375743 163.993988) scale(0.07746 -0.07746)">
       <use xlink:href="#DejaVuSans-31"/>
       <use xlink:href="#DejaVuSans-30" transform="translate(63.623047 0)"/>
       <use xlink:href="#DejaVuSans-30" transform="translate(127.246094 0)"/>
       <use xlink:href="#DejaVuSans-30" transform="translate(190.869141 0)"/>
       <use xlink:href="#DejaVuSans-30" transform="translate(254.492188 0)"/>
      </g>
     </g>
    </g>
    <g id="ytick_14">
     <g id="line2d_26">
      <g>
       <use xlink:href="#m2591f6a6f0" x="229.0176" y="141.974769" style="stroke: #000000; stroke-width: 0.8"/>
      </g>
     </g>
     <g id="text_32">
      <!-- 15000 -->
      <g transform="translate(197.375743 144.917631) scale(0.07746 -0.07746)">
       <use xlink:href="#DejaVuSans-31"/>
       <use xlink:href="#DejaVuSans-35" transform="translate(63.623047 0)"/>
       <use xlink:href="#DejaVuSans-30" transform="translate(127.246094 0)"/>
       <use xlink:href="#DejaVuSans-30" transform="translate(190.869141 0)"/>
       <use xlink:href="#DejaVuSans-30" transform="translate(254.492188 0)"/>
      </g>
     </g>
    </g>
    <g id="ytick_15">
     <g id="line2d_27">
      <g>
       <use xlink:href="#m2591f6a6f0" x="229.0176" y="122.898412" style="stroke: #000000; stroke-width: 0.8"/>
      </g>
     </g>
     <g id="text_33">
      <!-- 20000 -->
      <g transform="translate(197.375743 125.841274) scale(0.07746 -0.07746)">
       <use xlink:href="#DejaVuSans-32"/>
       <use xlink:href="#DejaVuSans-30" transform="translate(63.623047 0)"/>
       <use xlink:href="#DejaVuSans-30" transform="translate(127.246094 0)"/>
       <use xlink:href="#DejaVuSans-30" transform="translate(190.869141 0)"/>
       <use xlink:href="#DejaVuSans-30" transform="translate(254.492188 0)"/>
      </g>
     </g>
    </g>
    <g id="ytick_16">
     <g id="line2d_28">
      <g>
       <use xlink:href="#m2591f6a6f0" x="229.0176" y="103.822055" style="stroke: #000000; stroke-width: 0.8"/>
      </g>
     </g>
     <g id="text_34">
      <!-- 25000 -->
      <g transform="translate(197.375743 106.764917) scale(0.07746 -0.07746)">
       <use xlink:href="#DejaVuSans-32"/>
       <use xlink:href="#DejaVuSans-35" transform="translate(63.623047 0)"/>
       <use xlink:href="#DejaVuSans-30" transform="translate(127.246094 0)"/>
       <use xlink:href="#DejaVuSans-30" transform="translate(190.869141 0)"/>
       <use xlink:href="#DejaVuSans-30" transform="translate(254.492188 0)"/>
      </g>
     </g>
    </g>
    <g id="ytick_17">
     <g id="line2d_29">
      <g>
       <use xlink:href="#m2591f6a6f0" x="229.0176" y="84.745698" style="stroke: #000000; stroke-width: 0.8"/>
      </g>
     </g>
     <g id="text_35">
      <!-- 30000 -->
      <g transform="translate(197.375743 87.688561) scale(0.07746 -0.07746)">
       <use xlink:href="#DejaVuSans-33"/>
       <use xlink:href="#DejaVuSans-30" transform="translate(63.623047 0)"/>
       <use xlink:href="#DejaVuSans-30" transform="translate(127.246094 0)"/>
       <use xlink:href="#DejaVuSans-30" transform="translate(190.869141 0)"/>
       <use xlink:href="#DejaVuSans-30" transform="translate(254.492188 0)"/>
      </g>
     </g>
    </g>
    <g id="ytick_18">
     <g id="line2d_30">
      <g>
       <use xlink:href="#m2591f6a6f0" x="229.0176" y="65.669341" style="stroke: #000000; stroke-width: 0.8"/>
      </g>
     </g>
     <g id="text_36">
      <!-- 35000 -->
      <g transform="translate(197.375743 68.612204) scale(0.07746 -0.07746)">
       <use xlink:href="#DejaVuSans-33"/>
       <use xlink:href="#DejaVuSans-35" transform="translate(63.623047 0)"/>
       <use xlink:href="#DejaVuSans-30" transform="translate(127.246094 0)"/>
       <use xlink:href="#DejaVuSans-30" transform="translate(190.869141 0)"/>
       <use xlink:href="#DejaVuSans-30" transform="translate(254.492188 0)"/>
      </g>
     </g>
    </g>
    <g id="text_37">
     <!-- number bookings per month -->
     <g transform="translate(191.296056 197.967684) rotate(-90) scale(0.1 -0.1)">
      <defs>
       <path id="DejaVuSans-6b" d="M 581 4863 
L 1159 4863 
L 1159 1991 
L 2875 3500 
L 3609 3500 
L 1753 1863 
L 3688 0 
L 2938 0 
L 1159 1709 
L 1159 0 
L 581 0 
L 581 4863 
z
" transform="scale(0.015625)"/>
       <path id="DejaVuSans-67" d="M 2906 1791 
Q 2906 2416 2648 2759 
Q 2391 3103 1925 3103 
Q 1463 3103 1205 2759 
Q 947 2416 947 1791 
Q 947 1169 1205 825 
Q 1463 481 1925 481 
Q 2391 481 2648 825 
Q 2906 1169 2906 1791 
z
M 3481 434 
Q 3481 -459 3084 -895 
Q 2688 -1331 1869 -1331 
Q 1566 -1331 1297 -1286 
Q 1028 -1241 775 -1147 
L 775 -588 
Q 1028 -725 1275 -790 
Q 1522 -856 1778 -856 
Q 2344 -856 2625 -561 
Q 2906 -266 2906 331 
L 2906 616 
Q 2728 306 2450 153 
Q 2172 0 1784 0 
Q 1141 0 747 490 
Q 353 981 353 1791 
Q 353 2603 747 3093 
Q 1141 3584 1784 3584 
Q 2172 3584 2450 3431 
Q 2728 3278 2906 2969 
L 2906 3500 
L 3481 3500 
L 3481 434 
z
" transform="scale(0.015625)"/>
      </defs>
      <use xlink:href="#DejaVuSans-6e"/>
      <use xlink:href="#DejaVuSans-75" transform="translate(63.378906 0)"/>
      <use xlink:href="#DejaVuSans-6d" transform="translate(126.757812 0)"/>
      <use xlink:href="#DejaVuSans-62" transform="translate(224.169922 0)"/>
      <use xlink:href="#DejaVuSans-65" transform="translate(287.646484 0)"/>
      <use xlink:href="#DejaVuSans-72" transform="translate(349.169922 0)"/>
      <use xlink:href="#DejaVuSans-20" transform="translate(390.283203 0)"/>
      <use xlink:href="#DejaVuSans-62" transform="translate(422.070312 0)"/>
      <use xlink:href="#DejaVuSans-6f" transform="translate(485.546875 0)"/>
      <use xlink:href="#DejaVuSans-6f" transform="translate(546.728516 0)"/>
      <use xlink:href="#DejaVuSans-6b" transform="translate(607.910156 0)"/>
      <use xlink:href="#DejaVuSans-69" transform="translate(665.820312 0)"/>
      <use xlink:href="#DejaVuSans-6e" transform="translate(693.603516 0)"/>
      <use xlink:href="#DejaVuSans-67" transform="translate(756.982422 0)"/>
      <use xlink:href="#DejaVuSans-73" transform="translate(820.458984 0)"/>
      <use xlink:href="#DejaVuSans-20" transform="translate(872.558594 0)"/>
      <use xlink:href="#DejaVuSans-70" transform="translate(904.345703 0)"/>
      <use xlink:href="#DejaVuSans-65" transform="translate(967.822266 0)"/>
      <use xlink:href="#DejaVuSans-72" transform="translate(1029.345703 0)"/>
      <use xlink:href="#DejaVuSans-20" transform="translate(1070.458984 0)"/>
      <use xlink:href="#DejaVuSans-6d" transform="translate(1102.246094 0)"/>
      <use xlink:href="#DejaVuSans-6f" transform="translate(1199.658203 0)"/>
      <use xlink:href="#DejaVuSans-6e" transform="translate(1260.839844 0)"/>
      <use xlink:href="#DejaVuSans-74" transform="translate(1324.21875 0)"/>
      <use xlink:href="#DejaVuSans-68" transform="translate(1363.427734 0)"/>
     </g>
    </g>
   </g>
   <g id="line2d_31">
    <path d="M 237.133964 199.20384 
L 243.627055 54.05184 
L 250.120145 133.607879 
L 256.613236 150.650696 
L 263.106327 159.238872 
L 269.599418 168.399339 
L 276.092509 169.017413 
L 282.5856 177.357596 
L 289.078691 182.534919 
L 295.571782 186.079306 
L 302.064873 186.0526 
L 308.557964 188.723289 
L 315.051055 192.374504 
L 321.544145 195.472505 
L 328.037236 196.090579 
L 334.530327 197.174116 
L 341.023418 197.044396 
L 347.516509 198.734562 
L 354.0096 198.738377 
L 360.502691 198.85665 
L 366.995782 198.944402 
L 373.488873 198.650626 
L 379.981964 199.20384 
L 386.475055 199.20384 
L 392.968145 199.200025 
L 399.461236 199.200025 
" clip-path="url(#p5268608ecf)" style="fill: none; stroke: #000000; stroke-width: 1.5; stroke-linecap: square"/>
   </g>
   <g id="patch_90">
    <path d="M 229.0176 206.46144 
L 229.0176 46.79424 
" style="fill: none; stroke: #000000; stroke-width: 0.8; stroke-linejoin: miter; stroke-linecap: square"/>
   </g>
   <g id="patch_91">
    <path d="M 407.5776 206.46144 
L 407.5776 46.79424 
" style="fill: none; stroke: #000000; stroke-width: 0.8; stroke-linejoin: miter; stroke-linecap: square"/>
   </g>
   <g id="patch_92">
    <path d="M 229.0176 206.46144 
L 407.5776 206.46144 
" style="fill: none; stroke: #000000; stroke-width: 0.8; stroke-linejoin: miter; stroke-linecap: square"/>
   </g>
   <g id="patch_93">
    <path d="M 229.0176 46.79424 
L 407.5776 46.79424 
" style="fill: none; stroke: #000000; stroke-width: 0.8; stroke-linejoin: miter; stroke-linecap: square"/>
   </g>
  </g>
 </g>
 <defs>
  <clipPath id="pc573ef01b1">
   <rect x="57.6" y="41.472" width="357.12" height="266.112"/>
  </clipPath>
  <clipPath id="p5268608ecf">
   <rect x="229.0176" y="46.79424" width="178.56" height="159.6672"/>
  </clipPath>
 </defs>
</svg>
